<svg width="63" height="62" viewBox="0 0 63 62" fill="none" xmlns="http://www.w3.org/2000/svg">
<g filter="url(#filter0_d_21838_186)">
<path d="M7.875 13.5625V44.5625C7.875 45.5902 8.28326 46.5758 9.00996 47.3025C9.73666 48.0292 10.7223 48.4375 11.75 48.4375H50.5C51.5277 48.4375 52.5133 48.0292 53.24 47.3025C53.9667 46.5758 54.375 45.5902 54.375 44.5625V13.5625H7.875ZM7.875 9.6875H54.375C55.4027 9.6875 56.3883 10.0958 57.115 10.8225C57.8417 11.5492 58.25 12.5348 58.25 13.5625V44.5625C58.25 46.6179 57.4335 48.5892 55.9801 50.0426C54.5267 51.496 52.5554 52.3125 50.5 52.3125H11.75C9.69457 52.3125 7.72333 51.496 6.26992 50.0426C4.81652 48.5892 4 46.6179 4 44.5625V13.5625C4 12.5348 4.40826 11.5492 5.13496 10.8225C5.86166 10.0958 6.84729 9.6875 7.875 9.6875Z" fill="#DEDAD1"/>
<path d="M54.8594 13.5625L39.8748 30.69C38.7836 31.9373 37.4384 32.937 35.9294 33.6219C34.4203 34.3068 32.7822 34.6611 31.125 34.6611C29.4678 34.6611 27.8297 34.3068 26.3206 33.6219C24.8116 32.937 23.4664 31.9373 22.3753 30.69L7.39062 13.5625H54.8594ZM12.5405 13.5625L25.2892 28.1364C26.0167 28.9681 26.9135 29.6348 27.9197 30.0915C28.9259 30.5482 30.0181 30.7845 31.1231 30.7845C32.228 30.7845 33.3202 30.5482 34.3264 30.0915C35.3326 29.6348 36.2295 28.9681 36.9569 28.1364L49.7095 13.5625H12.5405Z" fill="#DEDAD1"/>
</g>
<defs>
<filter id="filter0_d_21838_186" x="-3.875" y="0" width="70" height="70" filterUnits="userSpaceOnUse" color-interpolation-filters="sRGB">
<feFlood flood-opacity="0" result="BackgroundImageFix"/>
<feColorMatrix in="SourceAlpha" type="matrix" values="0 0 0 0 0 0 0 0 0 0 0 0 0 0 0 0 0 0 127 0" result="hardAlpha"/>
<feOffset dy="4"/>
<feGaussianBlur stdDeviation="2"/>
<feComposite in2="hardAlpha" operator="out"/>
<feColorMatrix type="matrix" values="0 0 0 0 0 0 0 0 0 0 0 0 0 0 0 0 0 0 0.25 0"/>
<feBlend mode="normal" in2="BackgroundImageFix" result="effect1_dropShadow_21838_186"/>
<feBlend mode="normal" in="SourceGraphic" in2="effect1_dropShadow_21838_186" result="shape"/>
</filter>
</defs>
</svg>
